<?xml version="1.0" encoding="UTF-8" standalone="no"?>
<!-- Created with Inkscape (http://www.inkscape.org/) -->

<svg
   width="32mm"
   height="32mm"
   viewBox="0 0 32 32"
   version="1.1"
   id="svg5"
   inkscape:version="1.1 (c68e22c387, 2021-05-23)"
   sodipodi:docname="logotype.svg"
   inkscape:export-xdpi="508"
   inkscape:export-ydpi="508"
   xmlns:inkscape="http://www.inkscape.org/namespaces/inkscape"
   xmlns:sodipodi="http://sodipodi.sourceforge.net/DTD/sodipodi-0.dtd"
   xmlns="http://www.w3.org/2000/svg"
   xmlns:svg="http://www.w3.org/2000/svg">
  <sodipodi:namedview
     id="namedview7"
     pagecolor="#ffffff"
     bordercolor="#666666"
     borderopacity="1.0"
     inkscape:pageshadow="2"
     inkscape:pageopacity="1"
     inkscape:pagecheckerboard="true"
     inkscape:document-units="mm"
     showgrid="false"
     inkscape:zoom="2.771108"
     inkscape:cx="137.67056"
     inkscape:cy="21.110689"
     inkscape:window-width="1920"
     inkscape:window-height="1017"
     inkscape:window-x="892"
     inkscape:window-y="166"
     inkscape:window-maximized="1"
     inkscape:current-layer="g40717"
     inkscape:lockguides="false"
     showguides="true"
     inkscape:guide-bbox="true">
    <sodipodi:guide
       position="63.111788,-22.508527"
       orientation="1,0"
       id="guide42672" />
  </sodipodi:namedview>
  <defs
     id="defs2" />
  <g
     inkscape:label="Layer 1"
     inkscape:groupmode="layer"
     id="layer1">
    <g
       aria-label="freeinit"
       id="text1046"
       style="font-size:10.5833px;line-height:1.25;font-family:'SF Pro';-inkscape-font-specification:'SF Pro';stroke-width:0.264583">
      <rect
         style="fill:#201a26;fill-opacity:1;stroke-width:0.105996"
         id="rect40753"
         width="32"
         height="32"
         x="0"
         y="-1.7763568e-15" />
      <g
         id="g40717"
         transform="matrix(1.0707128,0,0,1.0420763,-39.474812,-98.146793)">
        <path
           d="m 45.111456,117.98577 h 1.15443 v -6.90004 h -1.15443 z"
           style="font-weight:100;-inkscape-font-specification:'SF Pro Thin';fill:#30d475;fill-opacity:1;stroke-width:0.339695"
           id="path11907"
           sodipodi:nodetypes="ccccc" />
        <path
           d="m 47.838301,117.98577 h 1.15443 v -4.0604 q 0,-0.59049 0.218944,-1.02839 0.225578,-0.43788 0.630292,-0.67672 0.404714,-0.24549 0.948757,-0.24549 0.796158,0 1.187603,0.45116 0.39808,0.44452 0.39808,1.28712 v 4.27272 h 1.15443 v -4.4784 q 0,-1.18096 -0.630293,-1.86433 -0.623658,-0.69 -1.758184,-0.69 -0.782889,0 -1.313662,0.31845 -0.530772,0.31183 -0.809429,0.79617 h -0.02654 v -0.98193 h -1.15443 z"
           style="font-weight:100;-inkscape-font-specification:'SF Pro Thin';fill:#30d475;fill-opacity:1;stroke-width:0.339695"
           id="path11909" />
        <path
           d="m 55.070076,117.98577 h 1.154431 v -6.90004 h -1.154431 z"
           style="font-weight:100;-inkscape-font-specification:'SF Pro Thin';fill:#30d475;fill-opacity:1;stroke-width:0.339695"
           id="path11911"
           sodipodi:nodetypes="ccccc" />
        <path
           d="m 60.039435,118.11847 c 0.114998,0 0.227791,-0.006 0.338368,-0.0199 0.114998,-0.009 0.207886,-0.0177 0.278655,-0.0266 v -0.93548 c -0.04865,0.004 -0.106152,0.0103 -0.1725,0.0199 -0.06192,0.004 -0.128274,0.006 -0.19904,0.006 -0.309618,0 -0.544042,-0.0641 -0.703274,-0.1924 -0.159231,-0.13269 -0.238848,-0.3826 -0.238848,-0.74973 v -4.17983 h 1.313662 v -0.95539 h -1.313662 v 0 h -1.194238 v 0 H 57.14009 v 0.95539 h 1.008468 v 4.18647 c 0,0.65905 0.15702,1.13895 0.471061,1.43973 0.31404,0.30077 0.787313,0.45116 1.419816,0.45116 z"
           style="font-weight:100;-inkscape-font-specification:'SF Pro Thin';fill:#30d475;fill-opacity:1;stroke-width:0.339695"
           id="path11913"
           sodipodi:nodetypes="cccccscsccccccccccsscc" />
        <g
           aria-label="free"
           id="text15707"
           style="font-size:14.1111px;font-family:Pristina;-inkscape-font-specification:Pristina;fill:#30d475;stroke-width:0.0700042">
          <path
             d="m 48.537222,99.690828 q 0.103353,0.07579 0.103353,0.165365 0,0.137804 -0.172255,0.137804 -0.07579,0 -0.144694,-0.03445 -0.39274,-0.213596 -0.695908,-0.213596 -0.227377,0 -0.406521,0.110243 -0.689019,0.440967 -2.184189,4.602647 1.11621,0.17225 1.412488,0.17225 0.158474,0 0.158474,0.11713 0,0.13092 -0.158474,0.16537 -0.806152,0.15158 -1.639864,0.19292 -0.943956,2.79053 -1.4745,5.18831 -0.427192,1.93615 -0.427192,2.76297 0,0.0689 0.02067,0.2067 0.02067,0.1447 0.02067,0.22049 0,0.11024 -0.07579,0.11024 -0.103352,0 -0.489203,-0.23426 -0.461642,-0.26872 -0.39963,-0.6339 0.578775,-3.05924 2.032604,-7.60677 -0.537434,0.0345 -0.647677,0.0276 -0.144694,-0.0207 -0.199816,-0.13781 -0.07579,-0.18603 -0.07579,-0.2067 0,-0.10336 0.220486,-0.15848 0.316949,-0.0758 0.633897,-0.14469 0.289388,-0.0827 0.33762,-0.22738 1.109319,-3.21082 1.743217,-4.382156 0.523654,-0.964626 0.999076,-0.964626 0.454753,0 1.508951,0.76481 z"
             id="path831" />
          <path
             d="m 50.542266,104.85158 q 0,0.90261 -0.241156,1.72254 -0.07579,0.24805 -0.206706,0.24805 -0.09646,0 -0.427191,-0.27561 -0.165365,-0.1378 -0.08268,-0.39274 0.192926,-0.627 0.192926,-1.00596 0,-0.13092 -0.05512,-0.13092 -0.08268,0 -0.268717,0.24805 -1.433159,1.86724 -2.142848,4.18923 -0.227376,0.73725 -0.38585,0.73725 -0.06201,0 -0.544325,-0.24116 -0.234266,-0.11713 -0.158474,-0.45475 0.544324,-2.384 1.171331,-4.02387 -0.509873,0.53744 -0.647677,0.73725 -0.05512,0.0827 -0.151584,0.0827 -0.117133,0 -0.117133,-0.10336 0,-0.062 0.05512,-0.1378 0.337619,-0.40652 0.902614,-1.24023 0.172255,-0.30317 0.34451,-0.30317 0.124023,0 0.502983,0.19292 0.213596,0.11025 0.0689,0.29628 -0.151584,0.19982 -0.571885,1.41249 -0.399631,1.17822 -0.551215,1.84657 0.937065,-2.08773 2.129067,-3.68625 0.227376,-0.30317 0.36518,-0.30317 0.124023,0 0.337619,0.16537 0.289388,0.0344 0.36518,0.0896 0.117133,0.0827 0.117133,0.33073 z"
             id="path833" />
          <path
             d="m 54.207845,108.06929 q -1.674315,2.14285 -2.356443,2.14285 -0.323839,0 -0.819933,-0.44786 -0.516763,-0.24116 -0.516763,-0.64768 0,-0.0758 0.01378,-0.15847 0.124023,-0.94396 0.502983,-2.08773 -0.254936,-0.13091 -0.254936,-0.24804 0,-0.0965 0.144693,-0.0965 0.110243,0 0.227377,0.062 0.613226,-1.37803 1.102429,-1.95681 0.316949,-0.38585 0.571886,-0.38585 0.117133,0 0.578775,0.19982 -0.03445,-0.20671 0.117133,-0.24116 0.0069,0 0.323839,0 0.296278,0 0.296278,0.10335 0,0.0207 -0.02067,0.11714 -0.02067,0.0965 -0.02067,0.17914 0,0.24805 0.0069,0.61323 0.0069,0.36518 0.0069,0.4892 0,0.85438 -0.468532,1.192 -0.427192,0.31006 -0.964626,0.31006 -0.282498,0 -0.937065,-0.15158 -0.117134,0.21359 -0.261827,0.83371 -0.192926,0.78548 -0.179145,1.39182 0.0069,0.35829 0.227376,0.35829 0.08268,0 0.213596,-0.0413 0.799261,-0.2825 2.22553,-1.72255 0.08957,-0.0896 0.179144,-0.0896 0.130914,0 0.130914,0.12402 0,0.0758 -0.0689,0.15847 z m -0.806152,-3.04546 q 0,-0.26872 -0.117133,-0.26872 -0.07579,0 -0.220486,0.11025 -0.675238,0.54432 -1.185112,1.90858 0.137804,0.0207 0.482313,0.0413 0.558105,0.0207 0.833713,-0.25494 0.206705,-0.2067 0.227376,-0.68212 -0.02067,0.35139 -0.02067,-0.85439 z"
             id="path835" />
          <path
             d="m 58.341956,108.06929 q -1.674315,2.14285 -2.356443,2.14285 -0.323839,0 -0.819932,-0.44786 -0.516764,-0.24116 -0.516764,-0.64768 0,-0.0758 0.01378,-0.15847 0.124024,-0.94396 0.502984,-2.08773 -0.254937,-0.13091 -0.254937,-0.24804 0,-0.0965 0.144694,-0.0965 0.110243,0 0.227376,0.062 0.613227,-1.37803 1.10243,-1.95681 0.316948,-0.38585 0.571885,-0.38585 0.117133,0 0.578776,0.19982 -0.03445,-0.20671 0.117133,-0.24116 0.0069,0 0.323839,0 0.296278,0 0.296278,0.10335 0,0.0207 -0.02067,0.11714 -0.02067,0.0965 -0.02067,0.17914 0,0.24805 0.0069,0.61323 0.0069,0.36518 0.0069,0.4892 0,0.85438 -0.468533,1.192 -0.427191,0.31006 -0.964626,0.31006 -0.282497,0 -0.937065,-0.15158 -0.117133,0.21359 -0.261827,0.83371 -0.192925,0.78548 -0.179145,1.39182 0.0069,0.35829 0.227376,0.35829 0.08268,0 0.213596,-0.0413 0.799261,-0.2825 2.22553,-1.72255 0.08957,-0.0896 0.179145,-0.0896 0.130913,0 0.130913,0.12402 0,0.0758 -0.0689,0.15847 z m -0.806151,-3.04546 q 0,-0.26872 -0.117133,-0.26872 -0.07579,0 -0.220486,0.11025 -0.675239,0.54432 -1.185112,1.90858 0.137803,0.0207 0.482313,0.0413 0.558105,0.0207 0.833712,-0.25494 0.206706,-0.2067 0.227376,-0.68212 -0.02067,0.35139 -0.02067,-0.85439 z"
             id="path837" />
        </g>
      </g>
    </g>
  </g>
</svg>
